# xmcd
#
# Track frame offsets: 
#        150
#        18833
#        29547
#        42838
#        55621
#        66150
#        82445
#        95209
#        105548
#        117739
#        128330
#        140789
#        152009
#        162059
#        173018
#        183190
#        193077
#        205721
#        219065
#        229879
#        245907
#        257531
#        270244
#        281116
#        293247
#
# Disc length: 4059 seconds
#
# Revision: 2
# Processed by: cddbd v1.5.2PL0 Copyright (c) Steve Scherf et al.
# Submitted via: ExactAudioCopyFreeDBPlugin 1.0
#
DISCID=6a0fd919
DTITLE=Various Artist - The Fame Studios Story: 1961-1973 - Home of t
DTITLE=he Muscle Shoals Sound [Kent-Ace]
DYEAR=2011
DGENRE=Soul
TTITLE0=Otis Redding - You Left the Water Running
TTITLE1=Clyde McPhatter - A Shot of Rhythm and Blues
TTITLE2=Art Freeman - Slippin' Around with You
TTITLE3=Kip Anderson - Without a Woman
TTITLE4=Arthur Conley - Sweet Soul Music
TTITLE5=Clarence and Calvin - Thread the Needle
TTITLE6=Aretha Franklin - I Never Loved a Man (The Way I Love You)
TTITLE7=Ted Taylor - Miss You So
TTITLE8=Don Covay and The Good Timers - You Put Something on Me
TTITLE9=Etta James - Tell Mama
TTITLE10=Terry and The Chain Reaction - Keep Your Cool
TTITLE11=Irma Thomas - Cheater Man
TTITLE12=Jeanie Greene - Don't Make Me Hate Loving You
TTITLE13=Linda Carr - Everytime
TTITLE14=The Wallace Brothers - I Stayed Away Too Long
TTITLE15=Laura Lee - As Long As I Got You
TTITLE16=The Blues Busters - Don't Lose Your Good Thing
TTITLE17=Clarence Carter - Slip Away
TTITLE18=Otis Clay - Do Right Woman, Do Right Man
TTITLE19=Spencer Wiggins - Once in a While (Is Better Than Never at Al
TTITLE19=l)
TTITLE20=Ben and Spence - Thief in the Night
TTITLE21=Mitty Collier - Take Me Just as I Am
TTITLE22=Maurice and Mac - Why Don't You Try Me
TTITLE23=George Jackson - Search Your Heart
TTITLE24=David and The Giants - Ten Miles High
EXTD=
EXTT0=
EXTT1=
EXTT2=
EXTT3=
EXTT4=
EXTT5=
EXTT6=
EXTT7=
EXTT8=
EXTT9=
EXTT10=
EXTT11=
EXTT12=
EXTT13=
EXTT14=
EXTT15=
EXTT16=
EXTT17=
EXTT18=
EXTT19=
EXTT20=
EXTT21=
EXTT22=
EXTT23=
EXTT24=
PLAYORDER=
